<svg xmlns="http://www.w3.org/2000/svg" xmlns:xlink="http://www.w3.org/1999/xlink" width="40" zoomAndPan="magnify" viewBox="0 0 30 30.000001" height="40" preserveAspectRatio="xMidYMid meet" version="1.0"><defs><clipPath id="a67c25b5dd"><path d="M 2 1.207031 L 27.914062 1.207031 L 27.914062 28 L 2 28 Z M 2 1.207031 " clip-rule="nonzero"/></clipPath></defs><g clip-path="url(#a67c25b5dd)"><path fill="#ff914d" d="M 23.734375 27.824219 C 23.730469 27.824219 23.730469 27.824219 23.730469 27.824219 C 22.699219 27.824219 21.738281 27.394531 20.960938 26.585938 L 15 20.378906 L 9.039062 26.585938 C 8.261719 27.394531 7.300781 27.824219 6.265625 27.824219 C 4.652344 27.824219 3.109375 26.761719 2.4375 25.179688 C 1.800781 23.683594 2.105469 22.074219 3.261719 20.871094 L 9.367188 14.515625 L 3.261719 8.160156 C 2.109375 6.957031 1.800781 5.347656 2.4375 3.851562 C 3.109375 2.269531 4.652344 1.207031 6.269531 1.207031 C 7.300781 1.207031 8.261719 1.632812 9.039062 2.445312 L 15 8.652344 L 20.960938 2.445312 C 21.738281 1.632812 22.699219 1.207031 23.730469 1.207031 C 25.351562 1.207031 26.890625 2.269531 27.5625 3.851562 C 28.203125 5.347656 27.894531 6.957031 26.738281 8.160156 L 20.632812 14.515625 L 26.738281 20.871094 C 27.894531 22.074219 28.203125 23.683594 27.5625 25.179688 C 26.890625 26.761719 25.351562 27.824219 23.734375 27.824219 Z M 15 17.03125 L 22.632812 24.976562 C 22.96875 25.328125 23.339844 25.503906 23.734375 25.507812 C 24.410156 25.507812 25.125 24.984375 25.429688 24.269531 C 25.621094 23.824219 25.710938 23.148438 25.066406 22.480469 L 17.417969 14.515625 L 25.066406 6.550781 C 25.710938 5.882812 25.621094 5.207031 25.429688 4.761719 C 25.125 4.046875 24.410156 3.523438 23.730469 3.523438 C 23.339844 3.523438 22.96875 3.703125 22.632812 4.054688 L 15 12 L 7.367188 4.054688 C 7.03125 3.703125 6.660156 3.523438 6.269531 3.523438 C 5.589844 3.523438 4.875 4.046875 4.570312 4.761719 C 4.382812 5.207031 4.289062 5.878906 4.933594 6.550781 L 12.582031 14.515625 L 4.933594 22.480469 C 4.289062 23.148438 4.378906 23.824219 4.570312 24.269531 C 4.875 24.984375 5.589844 25.507812 6.265625 25.507812 C 6.660156 25.507812 7.03125 25.328125 7.367188 24.976562 Z M 15 17.03125 " fill-opacity="1" fill-rule="nonzero"/></g></svg>