<svg xmlns="http://www.w3.org/2000/svg" xmlns:xlink="http://www.w3.org/1999/xlink" width="40" zoomAndPan="magnify" viewBox="0 0 30 30.000001" height="40" preserveAspectRatio="xMidYMid meet" version="1.0"><defs><clipPath id="77e8754ef9"><path d="M 1.109375 21 L 28.6875 21 L 28.6875 26.0625 L 1.109375 26.0625 Z M 1.109375 21 " clip-rule="nonzero"/></clipPath><clipPath id="d44bae7962"><path d="M 1.109375 5.039062 L 28.6875 5.039062 L 28.6875 10 L 1.109375 10 Z M 1.109375 5.039062 " clip-rule="nonzero"/></clipPath><clipPath id="c24a0e7a48"><path d="M 1.109375 13 L 28.6875 13 L 28.6875 18 L 1.109375 18 Z M 1.109375 13 " clip-rule="nonzero"/></clipPath><clipPath id="5e412c90c0"><path d="M 1.109375 5.039062 L 28.6875 5.039062 L 28.6875 10 L 1.109375 10 Z M 1.109375 5.039062 " clip-rule="nonzero"/></clipPath><clipPath id="532ef475e4"><path d="M 1.109375 13 L 28.6875 13 L 28.6875 18 L 1.109375 18 Z M 1.109375 13 " clip-rule="nonzero"/></clipPath><clipPath id="1590bcb2a4"><path d="M 1.109375 21 L 28.6875 21 L 28.6875 26.0625 L 1.109375 26.0625 Z M 1.109375 21 " clip-rule="nonzero"/></clipPath></defs><g clip-path="url(#77e8754ef9)"><path fill="#c1ff72" d="M 28.546875 22.636719 C 28.199219 21.761719 27.351562 21.25 26.300781 21.25 C 26.300781 21.25 3.246094 21.25 3.246094 21.25 C 1.363281 21.25 0.613281 23.351562 1.445312 24.71875 C 1.609375 25.128906 1.894531 25.5 2.316406 25.765625 C 2.925781 26.15625 3.746094 26.0625 4.441406 26.0625 C 4.441406 26.0625 26.609375 26.0625 26.609375 26.0625 C 27.851562 26.0625 28.816406 25.175781 28.878906 23.933594 C 28.878906 23.921875 28.882812 23.910156 28.882812 23.902344 C 28.882812 23.886719 28.882812 23.875 28.878906 23.867188 C 28.875 23.390625 28.757812 22.976562 28.546875 22.636719 Z M 28.546875 22.636719 " fill-opacity="1" fill-rule="nonzero"/></g><g clip-path="url(#d44bae7962)"><path fill="#c1ff72" d="M 2.316406 9.574219 C 2.925781 9.964844 3.746094 9.871094 4.441406 9.871094 C 4.441406 9.871094 26.609375 9.871094 26.609375 9.871094 C 27.851562 9.871094 28.816406 8.984375 28.878906 7.742188 C 28.878906 7.730469 28.882812 7.71875 28.882812 7.710938 C 28.882812 7.699219 28.882812 7.6875 28.878906 7.675781 C 28.875 7.199219 28.757812 6.785156 28.546875 6.445312 C 28.199219 5.570312 27.351562 5.058594 26.300781 5.058594 C 26.300781 5.058594 3.246094 5.058594 3.246094 5.058594 C 1.363281 5.058594 0.613281 7.160156 1.445312 8.527344 C 1.609375 8.9375 1.894531 9.308594 2.316406 9.574219 Z M 2.316406 9.574219 " fill-opacity="1" fill-rule="nonzero"/></g><g clip-path="url(#c24a0e7a48)"><path fill="#c1ff72" d="M 28.546875 14.542969 C 28.199219 13.667969 27.351562 13.15625 26.300781 13.15625 C 26.300781 13.15625 3.246094 13.15625 3.246094 13.15625 C 1.363281 13.15625 0.613281 15.257812 1.445312 16.625 C 1.609375 17.035156 1.894531 17.402344 2.316406 17.671875 C 2.925781 18.058594 3.746094 17.964844 4.441406 17.964844 C 4.441406 17.964844 26.609375 17.964844 26.609375 17.964844 C 27.851562 17.964844 28.816406 17.082031 28.878906 15.835938 C 28.878906 15.828125 28.882812 15.816406 28.882812 15.804688 C 28.882812 15.792969 28.882812 15.78125 28.878906 15.769531 C 28.875 15.296875 28.757812 14.882812 28.546875 14.542969 Z M 28.546875 14.542969 " fill-opacity="1" fill-rule="nonzero"/></g><g clip-path="url(#5e412c90c0)"><path fill="#16a34a" d="M 2.316406 9.574219 C 2.925781 9.964844 3.746094 9.871094 4.441406 9.871094 C 4.441406 9.871094 26.609375 9.871094 26.609375 9.871094 C 27.851562 9.871094 28.816406 8.984375 28.878906 7.742188 C 28.878906 7.730469 28.882812 7.71875 28.882812 7.710938 C 28.882812 7.699219 28.882812 7.6875 28.878906 7.675781 C 28.875 7.199219 28.757812 6.785156 28.546875 6.445312 C 28.199219 5.570312 27.351562 5.058594 26.300781 5.058594 C 26.300781 5.058594 3.246094 5.058594 3.246094 5.058594 C 1.363281 5.058594 0.613281 7.160156 1.445312 8.527344 C 1.609375 8.9375 1.894531 9.308594 2.316406 9.574219 Z M 3.257812 5.496094 C 3.257812 5.496094 26.492188 5.496094 26.492188 5.496094 C 27.582031 5.496094 28.28125 6.332031 28.28125 7.382812 C 28.246094 8.375 27.484375 9.109375 26.492188 9.109375 C 26.492188 9.109375 4.09375 9.109375 4.09375 9.109375 C 3.023438 9.109375 1.917969 9.066406 1.5625 7.769531 C 1.253906 6.65625 2.097656 5.496094 3.257812 5.496094 Z M 3.257812 5.496094 " fill-opacity="1" fill-rule="nonzero"/></g><g clip-path="url(#532ef475e4)"><path fill="#16a34a" d="M 28.546875 14.542969 C 28.199219 13.667969 27.351562 13.15625 26.300781 13.15625 C 26.300781 13.15625 3.246094 13.15625 3.246094 13.15625 C 1.363281 13.15625 0.613281 15.257812 1.445312 16.625 C 1.609375 17.035156 1.894531 17.402344 2.316406 17.671875 C 2.925781 18.058594 3.746094 17.964844 4.441406 17.964844 C 4.441406 17.964844 26.609375 17.964844 26.609375 17.964844 C 27.851562 17.964844 28.816406 17.082031 28.878906 15.835938 C 28.878906 15.828125 28.882812 15.816406 28.882812 15.804688 C 28.882812 15.792969 28.882812 15.78125 28.878906 15.769531 C 28.875 15.296875 28.757812 14.882812 28.546875 14.542969 Z M 26.492188 17.203125 C 26.492188 17.203125 4.09375 17.203125 4.09375 17.203125 C 3.023438 17.203125 1.917969 17.164062 1.5625 15.867188 C 1.253906 14.753906 2.097656 13.589844 3.257812 13.589844 C 3.257812 13.589844 26.492188 13.589844 26.492188 13.589844 C 27.582031 13.589844 28.28125 14.425781 28.28125 15.476562 C 28.246094 16.46875 27.484375 17.203125 26.492188 17.203125 Z M 26.492188 17.203125 " fill-opacity="1" fill-rule="nonzero"/></g><g clip-path="url(#1590bcb2a4)"><path fill="#16a34a" d="M 28.546875 22.636719 C 28.199219 21.761719 27.351562 21.25 26.300781 21.25 C 26.300781 21.25 3.246094 21.25 3.246094 21.25 C 1.363281 21.25 0.613281 23.351562 1.445312 24.71875 C 1.609375 25.128906 1.894531 25.5 2.316406 25.765625 C 2.925781 26.15625 3.746094 26.0625 4.441406 26.0625 C 4.441406 26.0625 26.609375 26.0625 26.609375 26.0625 C 27.851562 26.0625 28.816406 25.175781 28.878906 23.933594 C 28.878906 23.921875 28.882812 23.910156 28.882812 23.902344 C 28.882812 23.886719 28.882812 23.875 28.878906 23.867188 C 28.875 23.390625 28.757812 22.976562 28.546875 22.636719 Z M 26.492188 25.300781 C 26.492188 25.300781 4.09375 25.300781 4.09375 25.300781 C 3.023438 25.300781 1.917969 25.257812 1.5625 23.960938 C 1.253906 22.847656 2.097656 21.6875 3.257812 21.6875 C 3.257812 21.6875 26.492188 21.6875 26.492188 21.6875 C 27.582031 21.6875 28.28125 22.523438 28.28125 23.574219 C 28.246094 24.566406 27.484375 25.300781 26.492188 25.300781 Z M 26.492188 25.300781 " fill-opacity="1" fill-rule="nonzero"/></g></svg>